<svg width="86" height="82" viewBox="0 0 86 82" fill="none" xmlns="http://www.w3.org/2000/svg">
<path d="M75.977 70.8438L75.9834 70.8371C81.4876 65.0666 84.5409 57.3726 84.4996 49.3829C84.5409 41.3932 81.4876 33.6992 75.9834 27.9286L75.977 27.922C70.1509 21.8892 61.7388 18.2658 51.4186 18.2658H28.1628L31.6805 14.7312L31.6991 14.7125L31.7171 14.6931C33.0969 13.2052 33.8469 11.2388 33.8112 9.20823C33.7756 7.17768 32.957 5.2389 31.5257 3.80074C30.0942 2.36236 28.1615 1.53716 26.1343 1.50122C24.1071 1.46529 22.1465 2.22147 20.6652 3.60837L20.6458 3.62646L20.6272 3.64522L3.78399 20.5693L3.78334 20.57C2.32042 22.0417 1.5 24.0353 1.5 26.1123C1.5 28.1893 2.32042 30.1828 3.78334 31.6546L3.78399 31.6553L20.6272 48.5793L20.6458 48.5981L20.6652 48.6162C22.1465 50.0031 24.1071 50.7593 26.1343 50.7233C28.1615 50.6874 30.0942 49.8622 31.5257 48.4238C32.957 46.9857 33.7756 45.0469 33.8112 43.0163C33.8469 40.9858 33.0969 39.0194 31.7171 37.5315L31.6991 37.5121L31.6805 37.4934L28.1628 33.9588H51.4186C57.9395 33.9588 62.1603 36.1559 64.7568 38.8398C67.4382 41.6263 68.8672 45.4318 68.8672 49.3829V49.3905L68.8673 49.3981C68.907 53.314 67.4305 57.0908 64.7518 59.9311C62.1549 62.6127 57.9353 64.8069 51.4186 64.8069H26.1538C24.0785 64.8069 22.0897 65.6354 20.6244 67.1077L21.6876 68.1658L20.6244 67.1077C19.1594 68.5797 18.3376 70.5748 18.3376 72.6535C18.3376 76.9784 21.8321 80.5 26.1538 80.5H51.4186C61.7388 80.5 70.1509 76.8766 75.977 70.8438Z" fill="white" stroke="#CFC8C4" stroke-width="3"/>
</svg>
